<svg width="50" height="50" viewBox="0 0 50 50" fill="none" xmlns="http://www.w3.org/2000/svg">
<path fill-rule="evenodd" clip-rule="evenodd" d="M23.6787 46.0102C23.9643 46.4649 24.4643 46.7421 25.002 46.7421C25.5397 46.7421 26.0397 46.4649 26.3253 46.0102C30.5545 39.2671 43.6329 18.4135 46.6347 13.6271C47.001 13.0425 46.9408 12.2867 46.4857 11.767C44.7644 9.80239 40.6352 5.0873 39.2435 3.49817C38.9466 3.1607 38.5181 2.96582 38.0681 2.96582C34.2124 2.96582 15.7916 2.96582 11.9359 2.96582C11.4859 2.96582 11.0574 3.1607 10.7605 3.49817C9.3688 5.0873 5.2396 9.80239 3.51833 11.767C3.06327 12.2867 3.00307 13.0425 3.36937 13.6271C6.37112 18.4135 19.4495 39.2671 23.6787 46.0102Z" fill="#FBFFF5"/>
<path fill-rule="evenodd" clip-rule="evenodd" d="M3.19922 12.656H46.8273C46.7637 12.4476 46.6564 12.2506 46.5063 12.0787C44.7846 10.1142 40.6523 5.39825 39.26 3.80891C38.964 3.4702 38.5346 3.27637 38.0844 3.27637C34.2283 3.27637 15.7983 3.27637 11.9422 3.27637C11.4919 3.27637 11.0626 3.4702 10.7666 3.80891C9.37418 5.39825 5.2419 10.1142 3.52021 12.0787C3.37014 12.2506 3.26279 12.4476 3.19922 12.656Z" fill="white"/>
<path fill-rule="evenodd" clip-rule="evenodd" d="M18.7585 12.656L25.0117 3.27637H11.9405C11.7915 3.27637 11.6446 3.29721 11.5039 3.3389L18.7585 12.656ZM25.0117 3.27637L31.2648 12.656L38.5194 3.3389C38.3788 3.29721 38.2318 3.27637 38.0828 3.27637H25.0117Z" fill="#FBFFF5"/>
<path fill-rule="evenodd" clip-rule="evenodd" d="M31.266 12.656H18.7598L25.0129 3.27637L31.266 12.656Z" fill="white"/>
<path fill-rule="evenodd" clip-rule="evenodd" d="M25.0129 47.061L18.7598 12.6562H31.266L25.0129 47.061Z" fill="white"/>
<path fill-rule="evenodd" clip-rule="evenodd" d="M12.505 40.8262L13.739 42.7195L15.6322 43.9534L13.739 45.1863L12.505 47.0795L11.2722 45.1863L9.37891 43.9534L11.2722 42.7195L12.505 40.8262Z" fill="#FBFFF5"/>
<path fill-rule="evenodd" clip-rule="evenodd" d="M6.25501 28.3262L7.48899 30.2195L9.3822 31.4534L7.48899 32.6863L6.25501 34.5795L5.02212 32.6863L3.12891 31.4534L5.02212 30.2195L6.25501 28.3262Z" fill="#FBFFF5"/>
<path fill-rule="evenodd" clip-rule="evenodd" d="M42.712 33.5342L43.946 35.4274L45.8392 36.6614L43.946 37.8943L42.712 39.7875L41.4791 37.8943L39.5859 36.6614L41.4791 35.4274L42.712 33.5342Z" fill="#FBFFF5"/>
<path d="M19.2785 40.1205C19.8541 40.1205 20.3207 39.6539 20.3207 39.0783C20.3207 38.5027 19.8541 38.0361 19.2785 38.0361C18.7029 38.0361 18.2363 38.5027 18.2363 39.0783C18.2363 39.6539 18.7029 40.1205 19.2785 40.1205Z" fill="#68B505"/>
<path fill-rule="evenodd" clip-rule="evenodd" d="M4.44947 13.6984H17.8968L23.7612 44.4836L21.9311 41.5665C21.6258 41.0788 20.9817 40.9319 20.495 41.2372C20.0072 41.5426 19.8603 42.1866 20.1657 42.6733C20.1657 42.6733 22.1271 45.8009 22.8055 46.8827C23.2818 47.6425 24.1155 48.1031 25.0129 48.1031C25.9102 48.1031 26.7439 47.6425 27.2202 46.8827L47.5377 14.4936C48.1494 13.5192 48.0483 12.2581 47.2896 11.3921C45.5679 9.42754 41.4367 4.71163 40.0443 3.1223C39.5493 2.55847 38.8354 2.23438 38.084 2.23438H11.9418C11.1903 2.23438 10.4764 2.55847 9.9814 3.1223C8.58904 4.71163 4.45781 9.42754 2.73611 11.3921C1.9774 12.2581 1.87631 13.5192 2.48807 14.4936L16.7191 37.18C17.0255 37.6677 17.6686 37.8146 18.1563 37.5093C18.643 37.2039 18.791 36.5599 18.4856 36.0732L4.44947 13.6984ZM44.7133 11.6141L38.7218 4.77626L33.3983 11.6141H40.6457C41.221 11.6141 41.6879 12.081 41.6879 12.6563C41.6879 13.2315 41.221 13.6984 40.6457 13.6984H32.1289L26.2645 44.4836L45.5763 13.6984H43.7722C43.197 13.6984 42.7301 13.2315 42.7301 12.6563C42.7301 12.081 43.197 11.6141 43.7722 11.6141H44.7133ZM30.007 13.6984H20.0187L25.0129 39.9157L30.007 13.6984ZM5.3124 11.6141H16.6274L11.3039 4.77626L5.3124 11.6141ZM20.7076 11.6141H29.3181L25.0129 5.15564L20.7076 11.6141ZM36.4363 4.31874H26.9607L31.3317 10.8751L36.4363 4.31874ZM23.065 4.31874H13.5895L18.6941 10.8751L23.065 4.31874Z" fill="#68B505"/>
<path fill-rule="evenodd" clip-rule="evenodd" d="M13.3763 40.257C13.1844 39.9619 12.8564 39.7842 12.5032 39.7842C12.1511 39.7842 11.8232 39.9619 11.6301 40.257L10.5168 41.9659L8.80783 43.0804C8.51277 43.2723 8.33398 43.6003 8.33398 43.9535C8.33398 44.3056 8.51277 44.6335 8.80783 44.8266L10.5168 45.9399L11.6301 47.6489C11.8232 47.9439 12.1511 48.1227 12.5032 48.1227C12.8564 48.1227 13.1844 47.9439 13.3763 47.6489L14.4908 45.9399L16.1997 44.8266C16.4948 44.6335 16.6724 44.3056 16.6724 43.9535C16.6724 43.6003 16.4948 43.2723 16.1997 43.0804L14.4908 41.9659L13.3763 40.257ZM12.5032 42.7348L12.8641 43.2888C12.9431 43.4094 13.0473 43.5136 13.1679 43.5926L13.7219 43.9535L13.1679 44.3132C13.0473 44.3922 12.9431 44.4964 12.8641 44.6182L12.5032 45.171L12.1434 44.6182C12.0645 44.4964 11.9603 44.3922 11.8385 44.3132L11.2857 43.9535L11.8385 43.5926C11.9603 43.5136 12.0645 43.4094 12.1434 43.2888L12.5032 42.7348Z" fill="#68B505"/>
<path fill-rule="evenodd" clip-rule="evenodd" d="M7.12631 27.757C6.93436 27.4619 6.6064 27.2842 6.2532 27.2842C5.90111 27.2842 5.57314 27.4619 5.38009 27.757L4.26676 29.4659L2.55783 30.5804C2.26277 30.7723 2.08398 31.1003 2.08398 31.4535C2.08398 31.8056 2.26277 32.1335 2.55783 32.3266L4.26676 33.4399L5.38009 35.1489C5.57314 35.4439 5.90111 35.6227 6.2532 35.6227C6.6064 35.6227 6.93436 35.4439 7.12631 35.1489L8.24074 33.4399L9.94967 32.3266C10.2448 32.1335 10.4224 31.8056 10.4224 31.4535C10.4224 31.1003 10.2448 30.7723 9.94967 30.5804L8.24074 29.4659L7.12631 27.757ZM6.2532 30.2348L6.61407 30.7888C6.69305 30.9094 6.79725 31.0136 6.91791 31.0926L7.47183 31.4535L6.91791 31.8132C6.79725 31.8922 6.69305 31.9964 6.61407 32.1182L6.2532 32.671L5.89343 32.1182C5.81445 31.9964 5.71025 31.8922 5.5885 31.8132L5.03567 31.4535L5.5885 31.0926C5.71025 31.0136 5.81445 30.9094 5.89343 30.7888L6.2532 30.2348Z" fill="#68B505"/>
<path fill-rule="evenodd" clip-rule="evenodd" d="M43.5854 32.965C43.3934 32.6699 43.0654 32.4922 42.7122 32.4922C42.3601 32.4922 42.0322 32.6699 41.8391 32.965L40.7258 34.6739L39.0169 35.7883C38.7218 35.9803 38.543 36.3083 38.543 36.6615C38.543 37.0136 38.7218 37.3415 39.0169 37.5346L40.7258 38.6479L41.8391 40.3568C42.0322 40.6519 42.3601 40.8307 42.7122 40.8307C43.0654 40.8307 43.3934 40.6519 43.5854 40.3568L44.6998 38.6479L46.4087 37.5346C46.7038 37.3415 46.8815 37.0136 46.8815 36.6615C46.8815 36.3083 46.7038 35.9803 46.4087 35.7883L44.6998 34.6739L43.5854 32.965ZM42.7122 35.4428L43.0731 35.9967C43.1521 36.1174 43.2563 36.2216 43.377 36.3006L43.9309 36.6615L43.377 37.0212C43.2563 37.1002 43.1521 37.2044 43.0731 37.3262L42.7122 37.879L42.3525 37.3262C42.2735 37.2044 42.1693 37.1002 42.0475 37.0212L41.4947 36.6615L42.0475 36.3006C42.1693 36.2216 42.2735 36.1174 42.3525 35.9967L42.7122 35.4428Z" fill="#68B505"/>
</svg>
