<svg width="800" height="800" viewBox="0 0 800 800" fill="none" xmlns="http://www.w3.org/2000/svg">
<path d="M723.912 126.937C779.475 84.55 789.363 25 755.263 25C730.338 25 681.862 56.875 610.537 150.437C624.462 62.15 597.938 38.2625 567.513 90.7625C503.438 201.325 389.65 277.038 356.925 359.975C355.213 362.425 353.312 364.837 351.825 367.337C323.188 353.687 294.038 345.712 264.925 345.712C232.15 345.712 207.675 364.238 198.225 383.938L177.188 400.063C172.188 388.625 166.475 377.575 160.175 366.975C156.38 360.533 152.408 354.197 148.263 347.975C154.313 343.437 185.025 319.1 181.412 294.325C177.375 266.875 176.912 264.125 177.5 249.738C177.5 249.738 146.137 262.575 152.35 298.038C157.575 327.938 150.35 343.35 147.938 347.5C140.629 336.503 132.739 325.905 124.3 315.75C131.338 305.113 149.212 275.013 140.475 255.025C129.7 230.388 128.563 227.938 125.513 214C125.513 214 98.8875 237.95 113.75 269.388C123.85 290.8 123.812 306.175 122.775 313.925C114.813 304.431 106.29 295.424 97.25 286.95C91.9 272.75 79.025 244.3 61.8 244.325C38.8625 244.337 36.5625 244.438 25 241.225C25 241.225 29.95 281 59.7625 279.75C76.775 279.037 87.3125 284.025 93.35 288.45C102.55 298.075 111.563 308.25 119.675 319.2C120.225 319.925 120.712 320.713 121.25 321.425C109.675 319.738 80.15 317.5 70.9 336.675C59.3 360.763 58.2125 363.225 50.05 373.725C50.05 373.725 80.8 388.662 94.9875 356.787C105.375 333.525 117.075 325.888 122.675 323.425C128.925 331.763 134.862 340.4 140.5 349.35C128.212 352.587 101.862 361.862 98.225 382.7C93.45 409.975 93.05 412.75 88.05 425.787C88.05 425.787 121.075 428.225 126.3 392.525C129.688 369.463 137.237 357.663 142.175 352.15C146.1 358.5 150.075 364.825 153.65 371.475C159.637 382.625 164.85 394.137 169.525 405.937L145.212 424.575L175.137 420.9C185.037 449.25 191.975 479.025 197.738 509.288L198.65 509.237C199.975 477.875 194.637 447.8 184.837 419.7L206.775 417C217.162 424.625 230.775 431.875 235.4 438.338C250.088 458.913 206.538 541.575 434 594.625C569.113 626.137 530.775 731.362 577.588 766.35C585.975 772.6 593.3 774.988 599.55 774.988C619.225 774.988 628.587 751.575 628.587 751.575C641.275 756.362 651.113 758.313 658.738 758.313C694.525 758.313 681.287 714.975 681.287 714.975C690.712 718.1 697.888 719.413 703.275 719.413C732.213 719.413 709.888 681.575 709.888 681.575C709.888 681.575 747.587 670.862 729.987 645.662C705.462 610.5 623.775 639.975 575.387 576.025C557.851 552.754 539.532 530.082 520.463 508.05C570.313 490.275 666.112 483.85 613.237 442.413C613.237 442.413 724 411.688 645.288 382.375C645.288 382.375 801.775 340.775 683.012 317.825C683.012 317.825 835.713 242 693.837 234.437C693.825 234.462 853.137 150.325 723.912 126.937ZM685.063 217.887L625.175 249.587L692.837 253.2C717.775 254.525 729.037 257.875 733.775 259.975C726.6 269.9 700.738 288.088 674.65 301.075L625.037 325.763L679.437 336.275C689.3 338.175 696.2 340.05 700.975 341.65C687.95 348.85 663.7 358.112 640.462 364.3L583.588 379.45L638.737 399.988C644.862 402.275 648.9 404.275 651.5 405.813C643.3 411.688 625.025 419.688 608.2 424.375L572.487 434.338L601.662 457.2C604.537 459.45 606.475 461.263 607.762 462.638C597.975 468.3 572.95 474.487 557.175 478.387C542.35 482.05 527.025 485.838 514.162 490.425L488.287 499.65L506.3 520.375C525.089 542.09 543.141 564.432 560.425 587.362C592.737 630.062 638.263 637.1 671.488 642.25C691.475 645.325 708.725 647.987 714.6 656.437C715.012 657.025 715.313 657.513 715.5 657.875C713.525 659.775 708.625 662.412 704.75 663.562L681.388 670.2L693.725 691.125C695.163 693.563 696.725 696.987 697.825 700.087C694.207 699.367 690.641 698.406 687.15 697.213L653.237 686.1L663.3 720.4C665.475 727.75 665.325 737.15 663.637 738.788C663.425 738.963 662 739.587 658.712 739.587C654.675 739.587 647.325 738.638 635.162 734.075L618.237 727.9L611.212 744.475C609.9 747.625 604.65 756.262 599.512 756.262C597.962 756.262 594.5 755.625 588.775 751.35C577.425 742.85 572.4 725.175 566.587 704.675C553.962 660.238 536.675 599.35 438.225 576.388C267.287 536.513 261.475 483.063 258.35 454.338C257.287 444.588 256.287 435.375 250.625 427.45C245.487 420.25 236.912 414.637 227.837 408.7C223.325 405.737 216.225 401.1 212.987 398.012C215.675 385.125 233.95 364.462 264.913 364.462C289.65 364.462 316.175 371.125 343.738 384.262L359.113 391.587L367.875 377C387.75 343.912 432.737 314.25 480.4 282.85C532.75 248.338 586.9 212.663 623.612 164.188C695.65 69.1125 740.275 43.75 755.263 43.75C755.538 43.75 755.775 43.75 755.975 43.775C758.463 51.25 750.675 82.9375 712.537 112.038L678.75 137.812L720.575 145.387C751.412 150.962 755.713 158.763 755.713 158.788C757 167.875 724.65 196.937 685.063 217.887Z" fill="#68B505"/>
<path d="M250.137 399.263C257.676 399.263 263.787 393.152 263.787 385.613C263.787 378.074 257.676 371.963 250.137 371.963C242.599 371.963 236.487 378.074 236.487 385.613C236.487 393.152 242.599 399.263 250.137 399.263Z" fill="#68B505"/>
</svg>
