<svg width="60" height="60" viewBox="0 0 60 60" fill="none" xmlns="http://www.w3.org/2000/svg">
<path fill-rule="evenodd" clip-rule="evenodd" d="M30.0609 3.88672C21.0814 3.88672 13.8027 11.1654 13.8027 20.1449C13.8115 25.8227 16.7767 31.0428 21.5504 33.973C22.3157 34.4433 23.1199 35.4688 23.2962 36.3492L23.7377 38.5591C23.9228 39.4833 24.742 40.1549 25.6837 40.1549H34.4381C35.3798 40.1549 36.1989 39.4833 36.384 38.5591L36.8255 36.3492C37.0018 35.4688 37.806 34.4433 38.5714 33.9743C43.345 31.0428 46.3102 25.8227 46.319 20.1449C46.319 11.1654 39.0404 3.88672 30.0609 3.88672Z" fill="#FBFFF5"/>
<path fill-rule="evenodd" clip-rule="evenodd" d="M23.6465 47.9463L36.4629 48.0113L35.3711 54.5621C35.1935 55.6264 34.2643 56.413 33.1862 56.413H26.9331C25.8551 56.413 24.9258 55.6264 24.7482 54.5621L23.6465 47.9463Z" fill="white"/>
<path fill-rule="evenodd" clip-rule="evenodd" d="M23.1823 45.1572H36.9391C37.2705 45.1572 37.5895 45.2885 37.8233 45.5236C38.0584 45.7575 38.1898 46.0764 38.1898 46.4078V47.6584C38.1898 48.345 37.6257 48.909 36.9391 48.909H23.1823C22.8508 48.909 22.5319 48.7777 22.2981 48.5426C22.0629 48.3087 21.9316 47.9898 21.9316 47.6584V46.4078C21.9316 45.7212 22.4957 45.1572 23.1823 45.1572Z" fill="#FBFFF5"/>
<path fill-rule="evenodd" clip-rule="evenodd" d="M30.0594 3.88672C26.9516 3.88672 24.4316 11.1654 24.4316 20.1449C24.4341 25.8227 25.4608 31.0428 27.1141 33.973C27.378 34.4433 27.6569 35.4688 27.7182 36.3492L27.8708 38.5591C27.9346 39.4833 28.2184 40.1549 28.5436 40.1549H31.5751C31.9003 40.1549 32.1842 39.4833 32.248 38.5591L32.4005 36.3492C32.4618 35.4688 32.7407 34.4433 33.0046 33.9743C34.6579 31.0428 35.6847 25.8227 35.6872 20.1449C35.6872 11.1654 33.1672 3.88672 30.0594 3.88672Z" fill="white"/>
<path fill-rule="evenodd" clip-rule="evenodd" d="M11.4726 38.6088C10.7922 38.0122 9.91431 37.6533 8.95508 37.6533C6.7965 37.6533 5.04688 39.473 5.04688 41.7178C5.04688 43.9627 6.7965 45.7824 8.95508 45.7824H14.4265C16.1536 45.7824 17.5531 44.3266 17.5531 42.5307C17.5531 40.7348 16.1536 39.2791 14.4265 39.2791C13.7587 39.2791 13.1384 39.4967 12.6306 39.8682L11.4726 38.6088Z" fill="#FBFFF5"/>
<path fill-rule="evenodd" clip-rule="evenodd" d="M51.8243 30.1309C52.3008 29.7132 52.9161 29.4619 53.5877 29.4619C55.0985 29.4619 56.3228 30.7363 56.3228 32.307C56.3228 33.8778 55.0985 35.1522 53.5877 35.1522H49.757C48.5489 35.1522 47.5684 34.1329 47.5684 32.8761C47.5684 31.6192 48.5489 30.5999 49.757 30.5999C50.2248 30.5999 50.6587 30.7525 51.0139 31.0126L51.8243 30.1309Z" fill="white"/>
<path fill-rule="evenodd" clip-rule="evenodd" d="M22.7409 50.1207L23.5151 54.768C23.7927 56.4314 25.2459 57.6632 26.933 57.6632H33.1861C34.8732 57.6632 36.3265 56.4314 36.6041 54.768L37.3782 50.1195C38.5438 49.9094 39.4393 48.8801 39.4393 47.6582V46.4076C39.4393 45.7448 39.1754 45.1082 38.7064 44.6392C38.2374 44.1702 37.6008 43.9064 36.938 43.9064H36.3127V40.8023C36.9655 40.3371 37.4433 39.633 37.6084 38.8038L38.0511 36.594C38.1674 36.0124 38.7189 35.3496 39.2242 35.0394C44.3655 31.8829 47.5596 26.2613 47.5683 20.147V20.1445C47.5683 10.4746 39.7294 2.63574 30.0596 2.63574C20.3897 2.63574 12.5508 10.4746 12.5508 20.1445V20.1457C12.5521 20.7135 12.5796 21.2751 12.6346 21.8328C12.7022 22.5194 13.3137 23.0222 14.0016 22.9546C14.6882 22.8871 15.1909 22.2756 15.1234 21.5877C15.0771 21.1112 15.0533 20.6297 15.0521 20.1432C15.0521 13.2548 19.6931 7.4519 26.0188 5.68727C24.343 8.69877 23.1811 14.0414 23.1811 20.1445V20.1457C23.1849 26.0787 24.298 31.5252 26.0238 34.5879C26.2302 34.9519 26.4228 35.7523 26.4703 36.4351L26.6229 38.645C26.6291 38.7338 26.6379 38.8201 26.6466 38.9039H25.6824C25.3335 38.9039 25.0308 38.6562 24.9633 38.3136L24.5218 36.1037C24.2854 34.9244 23.2287 33.5374 22.2032 32.9071C20.1334 31.6365 18.4313 29.8981 17.2082 27.8696C16.8517 27.278 16.0813 27.088 15.491 27.4444C14.8995 27.8008 14.7094 28.5699 15.0658 29.1615C16.4928 31.5277 18.4788 33.5562 20.895 35.0394C21.4002 35.3496 21.9518 36.0124 22.0681 36.594L22.5108 38.8038C22.6759 39.633 23.1536 40.3371 23.8065 40.8023V43.9064H23.1811C21.8092 43.9064 20.6799 45.0357 20.6799 46.4076V47.6582C20.6799 48.3211 20.9438 48.9576 21.4128 49.4266C21.7767 49.7905 22.2407 50.0307 22.7409 50.1207ZM34.837 50.1595H34.3955C33.7052 50.1595 33.1449 49.5992 33.1449 48.9089C33.1449 48.2185 33.7052 47.6582 34.3955 47.6582H36.938V46.5077C36.858 46.4876 36.7442 46.4076 36.938 46.4076H23.1811V47.5582C23.2612 47.5782 23.375 47.6582 23.1811 47.6582H30.3772C31.0663 47.6582 31.6279 48.2185 31.6279 48.9089C31.6279 49.5992 31.0663 50.1595 30.3772 50.1595H25.2822L25.9825 54.3566C26.0588 54.8193 26.464 55.162 26.933 55.162H33.1861C33.6551 55.162 34.0603 54.8193 34.1366 54.3566L34.837 50.1595ZM28.809 43.9064V41.4051H26.3077V43.9064H28.809ZM33.8115 43.9064V41.4051H31.3102V43.9064H33.8115ZM30.0596 5.13699C30.386 5.13699 30.6774 5.33459 30.9713 5.61723C31.439 6.06621 31.863 6.73153 32.2519 7.55695C33.5926 10.3946 34.4368 14.9781 34.4368 20.1445C34.4343 25.5672 33.4938 30.5597 31.9155 33.3586C31.5916 33.9351 31.2277 35.1832 31.1539 36.2625L31 38.4724C30.9913 38.61 30.9625 38.7663 30.9313 38.9039H29.1879C29.1566 38.7663 29.1279 38.61 29.1191 38.4724L28.9653 36.2625C28.8915 35.1832 28.5276 33.9351 28.2037 33.3586C26.6254 30.5597 25.6849 25.5672 25.6824 20.1445C25.6824 14.9781 26.5266 10.3946 27.8672 7.55695C28.2562 6.73153 28.6801 6.06621 29.1479 5.61723C29.4418 5.33459 29.7332 5.13699 30.0596 5.13699ZM34.1004 5.68727C35.7762 8.69877 36.938 14.0414 36.938 20.1445V20.1457C36.9355 26.0787 35.8212 31.5252 34.0953 34.5879C33.889 34.9519 33.6964 35.7523 33.6489 36.4351L33.4963 38.645C33.49 38.7338 33.4813 38.8201 33.4725 38.9039H34.4368C34.7857 38.9039 35.0883 38.6562 35.1559 38.3136L35.5974 36.1037C35.8337 34.9244 36.8905 33.5374 37.9148 32.9071C42.322 30.202 45.0583 25.3846 45.0671 20.1432C45.0671 13.256 40.426 7.4519 34.1004 5.68727Z" fill="#68B505"/>
<path fill-rule="evenodd" clip-rule="evenodd" d="M12.3949 37.764C12.3636 37.7302 12.3323 37.6989 12.2986 37.6689C11.3956 36.8785 10.2288 36.4033 8.9557 36.4033C6.12054 36.4033 3.79688 38.7695 3.79688 41.7184C3.79688 44.6674 6.12054 47.0336 8.9557 47.0336H14.4271C16.8308 47.0336 18.8043 45.0313 18.8043 42.5313C18.8043 40.0313 16.8308 38.0291 14.4271 38.0291C13.8894 38.0291 13.3741 38.1291 12.8976 38.3117L12.3949 37.764ZM10.6027 39.5098L11.7108 40.7154C12.141 41.1844 12.8551 41.2544 13.3691 40.8793C13.6693 40.6604 14.0332 40.5303 14.4271 40.5303C15.4777 40.5303 16.3031 41.4395 16.3031 42.5313C16.3031 43.6231 15.4777 44.5323 14.4271 44.5323H8.9557C7.47371 44.5323 6.29813 43.2592 6.29813 41.7184C6.29813 40.1777 7.47371 38.9045 8.9557 38.9045C9.57726 38.9045 10.1488 39.1309 10.599 39.5073L10.6027 39.5098Z" fill="#68B505"/>
<path fill-rule="evenodd" clip-rule="evenodd" d="M51.0007 29.1912L50.7168 29.4888C50.4129 29.3988 50.0903 29.35 49.7576 29.35C47.8717 29.35 46.3184 30.9158 46.3184 32.8768C46.3184 34.8378 47.8717 36.4035 49.7576 36.4035H53.5883C55.7756 36.4035 57.574 34.5826 57.574 32.3078C57.574 30.0329 55.7756 28.2119 53.5883 28.2119C52.6028 28.2119 51.6986 28.5784 51.0007 29.1912ZM52.6966 31.0321C52.9429 30.8333 53.2518 30.7132 53.5883 30.7132C54.4212 30.7132 55.0728 31.4398 55.0728 32.3078C55.0728 33.1757 54.4212 33.9023 53.5883 33.9023H49.7576C49.2261 33.9023 48.8196 33.4296 48.8196 32.8768C48.8196 32.324 49.2261 31.8513 49.7576 31.8513C49.9514 31.8513 50.1303 31.915 50.2766 32.0226C50.7906 32.399 51.5047 32.3278 51.9362 31.86L52.6928 31.0346L52.6966 31.0321Z" fill="#68B505"/>
<path d="M14.595 26.3587C15.286 26.3587 15.8461 25.7985 15.8461 25.1075C15.8461 24.4165 15.286 23.8564 14.595 23.8564C13.904 23.8564 13.3438 24.4165 13.3438 25.1075C13.3438 25.7985 13.904 26.3587 14.595 26.3587Z" fill="#68B505"/>
</svg>
