<svg width="60" height="60" viewBox="0 0 60 60" fill="none" xmlns="http://www.w3.org/2000/svg">
<path d="M38.7677 31.7461V55.0714C38.7677 56.0689 37.6455 56.6924 36.7727 56.0689L30.0396 51.2061L23.3065 56.0689C22.4337 56.6924 21.3115 56.0689 21.3115 55.0714V31.7461H38.7677Z" fill="white"/>
<path d="M30.0393 38.7377C39.6801 38.7377 47.4955 30.9223 47.4955 21.2815C47.4955 11.6406 39.6801 3.8252 30.0393 3.8252C20.3985 3.8252 12.583 11.6406 12.583 21.2815C12.583 30.9223 20.3985 38.7377 30.0393 38.7377Z" fill="#FBFFF5"/>
<path d="M31.2862 12.8026L32.5331 16.6679C32.6578 17.1666 33.1565 17.5407 33.78 17.5407H37.77C39.0169 17.5407 39.5156 19.037 38.5181 19.7851L35.2762 22.1542C34.7775 22.5282 34.6528 23.027 34.7775 23.5257L36.0243 27.391C36.3984 28.5132 35.0268 29.5107 34.154 28.7626L30.9122 26.3935C30.4134 26.0195 29.9147 26.0195 29.4159 26.3935L26.174 28.7626C25.1765 29.5107 23.9296 28.5132 24.3037 27.391L25.5506 23.5257C25.6753 23.027 25.5506 22.4036 25.0518 22.1542L21.81 19.7851C20.8125 19.037 21.3112 17.5407 22.5581 17.5407H26.5481C27.0469 17.5407 27.5456 17.1666 27.795 16.6679L29.0419 12.8026C29.1665 11.6804 30.9122 11.6804 31.2862 12.8026Z" fill="white"/>
<path d="M13.2929 27.5104C13.9831 27.5104 14.5427 26.9508 14.5427 26.2605C14.5427 25.5703 13.9831 25.0107 13.2929 25.0107C12.6026 25.0107 12.043 25.5703 12.043 26.2605C12.043 26.9508 12.6026 27.5104 13.2929 27.5104Z" fill="#68B505"/>
<path fill-rule="evenodd" clip-rule="evenodd" d="M20.2558 37.3071C17.5345 35.5862 15.2871 33.185 13.7538 30.3411C13.4262 29.7345 13.6538 28.9754 14.2616 28.6477C14.8694 28.3201 15.6285 28.5464 15.9562 29.1542C18.6963 34.2355 24.0665 37.691 30.2396 37.691C39.1903 37.691 46.4564 30.4249 46.4564 21.4754C46.4564 17.3821 44.9369 13.6415 42.4306 10.7863C41.9754 10.2686 42.028 9.47693 42.5457 9.0217C43.0647 8.56647 43.8564 8.61776 44.3116 9.13677C47.2031 12.4322 48.9577 16.7506 48.9577 21.4754C48.9577 28.1363 45.4697 33.9892 40.2233 37.3071V50.2498C40.2233 50.9401 39.663 51.5004 38.9727 51.5004C38.2823 51.5004 37.7221 50.9401 37.7221 50.2498V38.6353C35.4309 39.637 32.8996 40.1923 30.2396 40.1923C27.5795 40.1923 25.0482 39.637 22.7571 38.6353V55.2861C22.7571 55.2786 22.7696 55.2685 22.7759 55.266L29.508 50.4049C29.9444 50.0885 30.5347 50.0885 30.9712 50.4049C30.9712 50.4049 37.7095 55.2711 37.7033 55.2673C37.7145 55.2748 37.7221 55.2986 37.7221 55.2861V54.0017C37.7221 53.3113 38.2823 52.7511 38.9727 52.7511C39.663 52.7511 40.2233 53.3113 40.2233 54.0017V55.2861C40.2233 57.2796 37.9934 58.5477 36.2501 57.3021L36.2451 57.2983L30.2396 52.9612L24.2341 57.2983L24.2291 57.3021C22.4857 58.5477 20.2558 57.2796 20.2558 55.2861V37.3071ZM14.0652 22.6472C14.114 23.3351 13.595 23.9342 12.9071 23.9829C12.2181 24.033 11.619 23.514 11.5702 22.8249C11.5377 22.3796 11.5215 21.9294 11.5215 21.4754C11.5215 11.144 19.9094 2.75732 30.2396 2.75732C34.2266 2.75732 37.9247 4.00672 40.9624 6.13528C41.5277 6.53048 41.6653 7.31087 41.2688 7.87615C40.8724 8.44143 40.092 8.579 39.5267 8.1838C36.8954 6.34038 33.6925 5.25857 30.2396 5.25857C21.2888 5.25857 14.0227 12.5247 14.0227 21.4754C14.0227 21.8694 14.0377 22.2595 14.0652 22.6472ZM26.7065 16.4817C26.7278 16.4642 26.7979 16.4054 26.8454 16.3454C26.8454 16.3454 28.0185 12.7073 28.0185 12.7123C28.1785 11.7555 28.8551 11.164 29.688 10.9664C30.8123 10.6988 32.2281 11.2566 32.6758 12.601L33.9239 16.4717C33.9414 16.4767 33.9652 16.4817 33.9827 16.4817H37.9747C39.2153 16.4817 40.0682 17.2483 40.3784 18.1788C40.6885 19.1092 40.4659 20.2335 39.4679 20.9827C39.4679 20.9827 36.2276 23.3501 36.2201 23.3564C36.2051 23.3701 36.1938 23.3851 36.1926 23.4039C36.1926 23.4039 37.4182 27.2045 37.4144 27.1933C37.7908 28.3201 37.3118 29.3919 36.4977 29.9859C35.656 30.6012 34.4967 30.6963 33.5862 29.9471L30.3684 27.596L30.3646 27.5922L30.3596 27.596L27.1117 29.9684C25.0882 31.4729 22.5557 29.4669 23.3099 27.2045C23.3099 27.2045 24.538 23.3989 24.538 23.3939C24.5392 23.3889 24.5392 23.3839 24.5392 23.3789L21.2613 20.9827L21.2551 20.9789C20.2621 20.2336 20.0407 19.1092 20.3509 18.1788C20.661 17.2483 21.5127 16.4817 22.7533 16.4817H26.7065ZM22.7633 18.9829C22.9484 19.1192 25.9212 21.2903 25.9162 21.2878C26.8679 21.8344 27.2105 23.0274 26.9617 24.0242L26.9517 24.0642L25.7173 27.8911C26.2388 27.5097 28.8751 25.5825 28.8751 25.5825C29.3679 25.216 29.8706 25.0585 30.3646 25.0585C30.8574 25.0585 31.3601 25.216 31.8541 25.5825L35.012 27.8899L33.7776 24.0642L33.7676 24.0242C33.525 23.0525 33.7576 22.077 34.7356 21.3428C34.7356 21.3428 37.6883 19.1855 37.9647 18.9829H33.9827C32.7471 18.9829 31.8004 18.1888 31.534 17.2108L30.3646 13.584L29.1553 17.3333L29.1128 17.4184C28.6475 18.3476 27.6758 18.9829 26.7466 18.9829H22.7633Z" fill="#68B505"/>
</svg>
