<svg width="800" height="800" viewBox="0 0 800 800" fill="none" xmlns="http://www.w3.org/2000/svg">
<path d="M342.344 143.328C342.721 145.873 343.849 148.248 345.584 150.149C347.32 152.049 349.583 153.388 352.084 153.994C354.584 154.599 357.209 154.445 359.622 153.55C362.035 152.654 364.125 151.059 365.625 148.968L392.766 111.781C394.773 109.008 395.597 105.551 395.058 102.17C394.519 98.7898 392.661 95.7612 389.891 93.7496L352.766 66.5152C350.703 65.004 348.239 64.1386 345.684 64.0286C343.13 63.9185 340.6 64.5688 338.415 65.897C336.231 67.2253 334.489 69.1718 333.411 71.4903C332.333 73.8088 331.967 76.3949 332.359 78.9215L335.484 98.9058C290.557 108.268 248.217 127.329 211.422 154.755C174.627 182.181 144.265 217.312 122.457 257.691C100.65 298.071 87.9233 342.726 85.1671 388.535C82.4109 434.344 89.6915 480.203 106.5 522.906L122.125 558.593H152.906L132.594 512.328C117.361 473.562 110.75 431.945 113.22 390.368C115.69 348.79 127.182 308.248 146.897 271.559C166.611 234.869 194.077 202.911 227.386 177.905C260.694 152.898 299.048 135.442 339.781 126.75L342.344 143.328Z" fill="#68B505"/>
<path d="M709.797 524.484L691.953 517.188C705.813 481.133 712.895 442.83 712.844 404.203C712.844 254 606.016 124.031 458.828 95.1562L453.422 122.766C587.437 149.047 684.672 267.406 684.672 404.203C684.733 439.162 678.378 473.835 665.922 506.5L649.5 499.766C647.136 498.792 644.536 498.542 642.031 499.048C639.525 499.554 637.225 500.792 635.424 502.607C633.623 504.421 632.402 506.73 631.914 509.239C631.427 511.749 631.696 514.347 632.688 516.703L650.484 559.172C651.809 562.327 654.332 564.828 657.498 566.125C660.665 567.423 664.217 567.412 667.375 566.094L709.859 548.438C712.242 547.465 714.279 545.804 715.712 543.667C717.144 541.529 717.905 539.013 717.899 536.44C717.892 533.867 717.117 531.355 715.674 529.225C714.23 527.095 712.184 525.444 709.797 524.484Z" fill="#68B505"/>
<path d="M534.031 286.156C504.484 284.734 449.047 288.078 409.563 326.156C405.382 330.188 401.487 334.505 397.906 339.078C394.331 334.505 390.441 330.188 386.266 326.156C346.766 288.078 291.328 284.734 261.781 286.156C252.354 286.565 243.423 290.495 236.752 297.169C230.082 303.843 226.156 312.775 225.75 322.203C224.344 351.734 227.672 407.171 265.75 446.671C293 474.937 332.734 489.703 383.875 490.703V616.328H272.422V644.453H522.531V616.328H412V490.703C463.109 489.687 502.828 474.921 530.078 446.671C568.156 407.171 571.484 351.734 570.078 322.203C569.665 312.775 565.735 303.844 559.062 297.172C552.39 290.499 543.459 286.569 534.031 286.156ZM253.844 323.531C253.951 321.104 254.963 318.805 256.681 317.087C258.399 315.369 260.698 314.357 263.125 314.25C288.125 313.046 334.844 315.656 366.734 346.406C388.906 367.765 400.75 399.796 402.109 441.718C380.375 396.406 336.578 381.937 334.344 381.234L326.297 406.546C326.75 406.687 366.922 420 381.953 462.593C339.766 461.359 307.469 449.468 286 427.203C255.25 395.312 252.656 348.531 253.844 323.531Z" fill="#68B505"/>
</svg>
