<svg width="800" height="800" viewBox="0 0 800 800" fill="none" xmlns="http://www.w3.org/2000/svg">
<g clip-path="url(#clip0_78_32)">
<path fill-rule="evenodd" clip-rule="evenodd" d="M166.667 300C166.667 171.134 271.134 66.667 400 66.667C528.867 66.667 633.333 171.134 633.333 300V334.514C689.87 342.604 733.333 391.227 733.333 450V458.334C733.333 518.164 684.83 566.667 625 566.667C624.08 566.667 623.167 566.647 622.26 566.604C597.58 637.267 534.88 684.89 467.163 696.977C451.52 702.694 432.963 700 416.667 700C389.053 700 366.667 677.614 366.667 650C366.667 622.387 389.053 600 416.667 600H450C466.487 600 481.11 607.98 490.217 620.287C533.45 599.73 566.667 556.284 566.667 500V300C566.667 207.953 492.047 133.334 400 133.334C307.953 133.334 233.333 207.953 233.333 300V508.334C233.333 540.55 207.217 566.667 175 566.667C115.169 566.667 66.6667 518.164 66.6667 458.334V450C66.6667 391.227 110.128 342.604 166.667 334.514V300ZM166.667 402.847C147.247 409.71 133.333 428.23 133.333 450V458.334C133.333 478.49 147.648 495.307 166.667 499.167V402.847ZM633.333 402.847V499.167C652.353 495.307 666.667 478.49 666.667 458.334V450C666.667 428.23 652.753 409.71 633.333 402.847Z" fill="#68B505"/>
</g>
<defs>
<clipPath id="clip0_78_32">
<rect width="800" height="800" fill="white"/>
</clipPath>
</defs>
</svg>
