<svg width="305" height="305" viewBox="0 0 305 305" fill="none" xmlns="http://www.w3.org/2000/svg">
<path d="M236.052 304.76C254.487 304.521 271.963 297.339 284.65 284.41C297.579 271.483 304.76 254.008 304.76 235.812V69.427C304.76 50.994 297.578 33.516 284.891 20.35C271.963 7.421 254.486 0 236.052 0H68.709C50.275 0.24 32.798 7.421 20.11 20.35C7.18202 33.517 0 50.995 0 69.427V236.052C0.239 273.878 30.883 304.521 68.709 304.76" fill="#CF381E"/>
<path d="M188.65 161.837C182.185 183.383 192.718 204.929 214.983 196.312C208.519 211.873 197.745 235.094 197.745 259.274C197.745 259.274 197.745 275.554 209.715 279.624C209.715 279.624 226.475 283.694 222.886 268.851C220.252 259.514 219.535 249.939 220.731 240.363C224.799 220.491 231.026 201.1 239.166 182.427C239.166 182.427 264.782 129.039 279.624 104.142C279.624 104.142 285.847 91.4542 273.159 91.4542C269.329 91.4542 265.737 93.3692 263.345 96.4802L227.197 160.879C221.687 170.935 216.423 174.048 212.351 174.048C203.256 174.048 205.169 159.444 206.607 154.175C210.675 136.22 217.14 118.986 225.759 102.464C232.223 88.3402 219.294 87.1442 219.294 87.1442C211.153 84.9892 204.931 98.3972 204.931 98.3972L190.566 127.603C181.229 143.883 170.935 159.444 159.923 174.527C159.923 174.527 158.005 176.92 156.571 175.964C155.133 174.766 155.85 172.373 155.85 172.373C158.246 152.501 162.315 132.87 167.821 113.478C168.061 112.28 168.3 111.324 168.3 110.127C168.542 107.493 167.821 104.86 166.146 102.943C164.47 100.789 162.078 99.5922 159.443 99.5922C152.979 98.8752 149.866 101.987 144.123 108.928C131.435 124.491 116.59 147.951 109.408 158.486C108.691 159.682 107.254 159.443 107.254 157.767C107.254 152.978 124.013 101.267 124.013 101.267C124.013 101.267 125.926 94.0862 120.183 91.6922C120.183 91.6922 111.327 86.1863 104.141 96.9583L69.668 143.883C67.035 147.474 65.599 146.278 65.599 146.278V143.165L71.105 112.522C75.415 89.0612 67.275 87.8633 62.008 86.9062C58.177 86.9062 54.108 88.1022 50.755 90.2582C39.983 95.5242 31.843 116.832 31.843 116.832C31.843 116.832 29.449 124.492 34.715 127.603C36.392 128.56 38.307 129.279 40.222 129.04C47.883 128.561 49.32 114.436 54.826 114.436C55.784 114.436 55.784 115.634 55.784 115.874L38.068 190.329C36.871 194.637 38.786 199.185 42.378 201.58C44.772 203.017 47.405 203.256 50.038 202.776C52.433 202.059 54.587 200.383 56.023 198.229L62.486 188.174C71.824 171.654 89.061 147.953 90.737 147.953C91.454 147.953 91.696 147.953 91.696 148.67L85.23 192.483C84.511 196.313 86.667 200.382 90.258 202.058C93.609 203.254 97.201 203.015 100.311 201.339C103.903 198.467 107.016 194.875 109.171 190.805C112.76 185.06 129.998 164.71 140.53 146.037C141.251 144.839 141.968 146.037 141.73 146.756C139.576 156.571 137.896 182.665 137.658 189.129C137.179 201.818 146.994 203.254 147.236 203.254C153.701 203.733 159.924 200.859 163.515 195.594" fill="white"/>
</svg>
