<svg width="60" height="60" viewBox="0 0 60 60" fill="none" xmlns="http://www.w3.org/2000/svg">
<path fill-rule="evenodd" clip-rule="evenodd" d="M26.5997 48.2901C16.1094 46.5142 8.10791 37.3733 8.10791 26.3791C8.10791 14.1142 18.0654 4.15674 30.3302 4.15674C42.5951 4.15674 52.5526 14.1142 52.5526 26.3791C52.5526 37.3733 44.5511 46.5142 34.0608 48.2901L30.3302 56.683L26.5997 48.2901ZM30.3302 18.2988C34.79 18.2988 38.4117 21.9194 38.4117 26.3791C38.4117 30.8388 34.79 34.4607 30.3302 34.4607C25.8705 34.4607 22.2487 30.8388 22.2487 26.3791C22.2487 21.9194 25.8705 18.2988 30.3302 18.2988Z" fill="#FBFFF5"/>
<path fill-rule="evenodd" clip-rule="evenodd" d="M35.8823 22.2517C36.6894 23.3733 37.1656 24.7499 37.1656 26.2368C37.1656 30.0081 34.1029 33.0709 30.3316 33.0709C26.5603 33.0709 23.4976 30.0081 23.4976 26.2368C23.4976 22.4656 26.5603 19.4028 30.3316 19.4028C31.4385 19.4028 32.4844 19.6667 33.4091 20.1349C34.025 20.4465 34.7791 20.1995 35.0907 19.5829C35.4024 18.967 35.1554 18.2136 34.5388 17.9019C33.2746 17.2618 31.845 16.9009 30.3316 16.9009C25.1785 16.9009 20.9956 21.0838 20.9956 26.2368C20.9956 31.3899 25.1785 35.5728 30.3316 35.5728C35.4847 35.5728 39.6676 31.3899 39.6676 26.2368C39.6676 24.2046 39.0171 22.323 37.9131 20.7898C37.5096 20.2289 36.7268 20.1018 36.1668 20.5053C35.606 20.9088 35.4788 21.6909 35.8823 22.2517Z" fill="#68B505"/>
<path fill-rule="evenodd" clip-rule="evenodd" d="M12.3678 37.2512C10.3 34.002 9.10248 30.147 9.10248 26.0154C9.10248 14.4464 18.4966 5.05219 30.0656 5.05219C41.6346 5.05219 51.0288 14.4464 51.0288 26.0154C51.0288 36.3869 43.4824 45.0096 33.5854 46.6837C33.1735 46.7543 32.8221 47.025 32.6525 47.4086L30.0656 53.2285L27.4788 47.4086C27.3092 47.025 26.9578 46.7543 26.5458 46.6837C23.1997 46.1182 20.1243 44.7572 17.5173 42.8045C16.966 42.3905 16.1804 42.5036 15.7665 43.0548C15.3545 43.6082 15.4656 44.3917 16.0189 44.8057C18.7632 46.8614 21.974 48.3315 25.4635 49.0261C25.4615 49.0261 28.9227 56.8129 28.9227 56.8129C29.1246 57.2652 29.5709 57.556 30.0656 57.556C30.5604 57.556 31.0067 57.2652 31.2086 56.8129L34.6698 49.0261C45.4169 46.8856 53.5287 37.3905 53.5287 26.0154C53.5287 13.0651 43.0159 2.55225 30.0656 2.55225C17.1154 2.55225 6.60254 13.0651 6.60254 26.0154C6.60254 30.6418 7.94537 34.9572 10.2596 38.5941C10.6311 39.1757 11.4046 39.3473 11.9862 38.9778C12.5677 38.6062 12.7394 37.8328 12.3678 37.2512Z" fill="#68B505"/>
<path d="M13.7589 42.3469C14.4496 42.3469 15.0095 41.787 15.0095 41.0963C15.0095 40.4056 14.4496 39.8457 13.7589 39.8457C13.0682 39.8457 12.5083 40.4056 12.5083 41.0963C12.5083 41.787 13.0682 42.3469 13.7589 42.3469Z" fill="#68B505"/>
</svg>
