<svg width="60" height="60" viewBox="0 0 60 60" fill="none" xmlns="http://www.w3.org/2000/svg">
<path fill-rule="evenodd" clip-rule="evenodd" d="M9.2927 54.0755C6.29432 53.5678 4.00684 50.9552 4.00684 47.8125C4.00684 44.3065 6.85333 41.46 10.3593 41.46C13.8653 41.46 16.7118 44.3065 16.7118 47.8125C16.7118 50.9552 14.4243 53.5678 11.426 54.0755L10.3593 56.475L9.2927 54.0755Z" fill="#FBFFF5"/>
<path fill-rule="evenodd" clip-rule="evenodd" d="M49.1008 16.5755C46.1024 16.0678 43.8149 13.4552 43.8149 10.3125C43.8149 6.80646 46.6614 3.95996 50.1674 3.95996C53.6734 3.95996 56.5199 6.80646 56.5199 10.3125C56.5199 13.4552 54.2325 16.0678 51.2341 16.5755L50.1674 18.975L49.1008 16.5755Z" fill="#FBFFF5"/>
<path fill-rule="evenodd" clip-rule="evenodd" d="M8.40678 55.1623L9.21585 56.9831C9.41682 57.4347 9.86497 57.7264 10.3593 57.7264C10.8537 57.7264 11.3018 57.4347 11.5028 56.9831L12.3118 55.1623C15.5632 54.3001 17.9633 51.3346 17.9633 47.8124C17.9633 43.6157 14.556 40.2085 10.3593 40.2085C6.16262 40.2085 2.75537 43.6157 2.75537 47.8124C2.75537 51.334 5.15545 54.2995 8.40678 55.1623ZM10.3593 53.4217C10.1722 53.1156 9.86036 52.9025 9.50173 52.8419C7.09356 52.4342 5.25825 50.3361 5.25825 47.8124C5.25825 44.9971 7.544 42.7114 10.3593 42.7114C13.1746 42.7114 15.4604 44.9971 15.4604 47.8124C15.4604 50.3361 13.6251 52.4342 11.2169 52.8419C10.8583 52.9025 10.5464 53.1156 10.3593 53.4217Z" fill="#68B505"/>
<path fill-rule="evenodd" clip-rule="evenodd" d="M50.1674 15.9217C49.9803 15.6156 49.6685 15.4025 49.3098 15.3419C46.9017 14.9342 45.0664 12.8361 45.0664 10.3124C45.0664 7.49712 47.3521 5.21137 50.1674 5.21137C50.7605 5.21137 51.3299 5.31244 51.8601 5.49898C52.5115 5.72824 53.2264 5.38578 53.4557 4.73436C53.685 4.08294 53.3425 3.36799 52.6911 3.13815C51.9011 2.86037 51.0516 2.7085 50.1674 2.7085C45.9707 2.7085 42.5635 6.11574 42.5635 10.3124C42.5635 13.8346 44.9641 16.8001 48.2155 17.6629L49.024 19.4831C49.2249 19.9347 49.6731 20.2264 50.1674 20.2264C50.6618 20.2264 51.1099 19.9347 51.3109 19.4831L52.12 17.6623C55.3713 16.8001 57.7714 13.8346 57.7714 10.3124C57.7714 8.76127 57.3059 7.31867 56.5072 6.11516C56.1255 5.53997 55.3482 5.38232 54.773 5.76462C54.1978 6.14635 54.0401 6.92308 54.4219 7.49885C54.9572 8.30562 55.2685 9.27293 55.2685 10.3124C55.2685 12.8361 53.4332 14.9342 51.025 15.3419C50.6664 15.4025 50.3545 15.6156 50.1674 15.9217Z" fill="#68B505"/>
<path fill-rule="evenodd" clip-rule="evenodd" d="M19.1641 57.5288H21.6653C22.3557 57.5288 22.916 56.9685 22.916 56.2782C22.916 55.5878 22.3557 55.0275 21.6653 55.0275H19.1641C18.4737 55.0275 17.9135 55.5878 17.9135 56.2782C17.9135 56.9685 18.4737 57.5288 19.1641 57.5288ZM29.1691 57.5288H38.5488C45.1108 57.5288 50.4297 52.2099 50.4297 45.6479C50.4297 42.4963 49.1779 39.4748 46.9505 37.2462C44.7219 35.0188 41.7004 33.7669 38.5488 33.7669C32.5933 33.7669 25.2834 33.7669 19.7894 33.7669C17.9647 33.7669 16.2151 33.0428 14.9257 31.7522C13.6351 30.4628 12.911 28.7131 12.911 26.8885C12.911 25.0638 13.6351 23.3142 14.9257 22.0248C16.2151 20.7342 17.9647 20.01 19.7894 20.01H21.6653C22.3557 20.01 22.916 19.4498 22.916 18.7594C22.916 18.0691 22.3557 17.5088 21.6653 17.5088H19.7894C17.3019 17.5088 14.9157 18.4968 13.1574 20.2564C11.3977 22.0148 10.4097 24.401 10.4097 26.8885C10.4097 29.376 11.3977 31.7622 13.1574 33.5205C14.9157 35.2802 17.3019 36.2682 19.7894 36.2682H38.5488C41.0363 36.2682 43.4224 37.2562 45.1808 39.0158C46.9404 40.7742 47.9285 43.1604 47.9285 45.6479C47.9285 50.8279 43.7289 55.0275 38.5488 55.0275H29.1691C28.4787 55.0275 27.9185 55.5878 27.9185 56.2782C27.9185 56.9685 28.4787 57.5288 29.1691 57.5288ZM25.4172 20.01H41.6753C42.3657 20.01 42.926 19.4498 42.926 18.7594C42.926 18.0691 42.3657 17.5088 41.6753 17.5088H25.4172C24.7269 17.5088 24.1666 18.0691 24.1666 18.7594C24.1666 19.4498 24.7269 20.01 25.4172 20.01Z" fill="#68B505"/>
<path d="M25.0065 57.5251C25.6972 57.5251 26.2572 56.9652 26.2572 56.2745C26.2572 55.5838 25.6972 55.0239 25.0065 55.0239C24.3158 55.0239 23.7559 55.5838 23.7559 56.2745C23.7559 56.9652 24.3158 57.5251 25.0065 57.5251Z" fill="#68B505"/>
</svg>
